<?xml version="1.0" encoding="UTF-8" ?>
<!DOCTYPE svg PUBLIC "-//W3C//DTD SVG 1.1//EN" "http://www.w3.org/Graphics/SVG/1.1/DTD/svg11.dtd">
<svg width="2007pt" height="492pt" viewBox="0 0 2007 492" version="1.1" xmlns="http://www.w3.org/2000/svg">
<path fill="#ffffff" d=" M 0.00 0.00 L 2007.00 0.00 L 2007.00 492.00 L 0.00 492.00 L 0.00 0.00 Z" />
<path fill="#233443" d=" M 138.58 18.44 C 145.75 14.63 154.08 14.92 161.95 15.01 C 168.75 27.73 176.15 40.14 183.24 52.70 C 186.06 57.89 191.61 60.83 194.48 65.99 C 169.94 66.18 145.39 66.36 120.84 66.23 C 121.13 57.79 120.90 49.35 120.95 40.92 C 121.43 38.39 122.26 35.93 123.42 33.63 C 123.45 33.57 123.51 33.44 123.54 33.38 C 126.69 26.97 131.95 21.68 138.37 18.54 C 138.42 18.52 138.53 18.47 138.58 18.44 Z" />
<path fill="#283a4a" d=" M 161.95 15.01 C 179.51 14.99 197.07 15.00 214.63 15.02 C 223.83 32.10 234.00 48.66 243.10 65.79 C 226.90 66.27 210.68 66.07 194.48 65.99 C 191.61 60.83 186.06 57.89 183.24 52.70 C 176.15 40.14 168.75 27.73 161.95 15.01 Z" />
<path fill="#2d4154" d=" M 214.63 15.02 C 241.83 14.98 269.02 15.00 296.22 15.03 C 294.84 15.60 293.05 15.77 292.11 17.00 C 299.07 30.16 306.80 42.91 314.08 55.91 C 316.07 58.99 317.33 62.56 319.77 65.32 C 321.69 66.22 323.92 65.89 325.99 66.01 C 338.04 65.86 350.08 66.19 362.13 65.95 C 371.43 66.10 380.80 65.50 390.06 66.46 L 390.38 66.89 C 385.30 67.57 380.17 67.27 375.07 67.30 C 294.72 67.34 214.38 67.35 134.04 67.36 C 129.29 67.23 124.43 67.95 119.78 66.68 L 120.84 66.23 C 145.39 66.36 169.94 66.18 194.48 65.99 C 210.68 66.07 226.90 66.27 243.10 65.79 C 234.00 48.66 223.83 32.10 214.63 15.02 Z" />
<path fill="#31485d" d=" M 296.22 15.03 C 312.96 15.08 329.73 14.79 346.47 15.19 C 342.37 16.30 338.10 16.04 333.90 16.18 C 339.19 26.69 345.39 36.69 351.12 46.96 C 354.85 53.26 358.23 59.75 362.13 65.95 C 350.08 66.19 338.04 65.86 325.99 66.01 C 323.92 65.89 321.69 66.22 319.77 65.32 C 317.33 62.56 316.07 58.99 314.08 55.91 C 306.80 42.91 299.07 30.16 292.11 17.00 C 293.05 15.77 294.84 15.60 296.22 15.03 Z" />
<path fill="#354d63" d=" M 346.47 15.19 C 393.61 14.73 440.80 15.16 487.96 14.97 C 491.65 14.89 495.29 15.59 498.93 16.16 C 499.39 16.41 500.31 16.90 500.77 17.15 L 502.16 17.24 C 502.29 17.34 502.54 17.52 502.67 17.62 C 508.02 20.00 513.06 23.44 516.41 28.33 C 516.45 28.38 516.52 28.49 516.56 28.55 C 518.16 30.60 519.24 32.98 520.37 35.31 C 520.47 35.44 520.65 35.70 520.74 35.83 L 520.83 37.24 C 521.09 37.70 521.60 38.61 521.85 39.07 C 522.38 42.04 522.90 45.03 523.00 48.05 C 522.99 126.37 523.01 204.69 523.02 283.01 C 523.06 289.65 520.88 296.31 516.98 301.68 C 512.02 307.67 505.38 312.22 497.82 314.23 C 495.94 313.76 493.26 312.89 492.07 315.03 C 488.81 314.93 485.55 315.02 482.30 314.99 C 476.82 303.66 469.97 293.04 463.89 282.03 C 451.83 261.10 440.10 239.98 428.07 219.03 C 425.37 214.57 423.18 209.76 419.89 205.67 C 419.51 169.46 420.24 133.24 419.94 97.03 C 419.56 90.33 416.92 83.77 412.71 78.56 C 412.66 78.48 412.55 78.34 412.49 78.26 C 411.21 76.36 409.57 74.73 407.61 73.54 C 407.57 73.50 407.48 73.44 407.43 73.41 C 406.75 72.95 405.39 72.03 404.71 71.57 C 404.63 71.51 404.47 71.40 404.39 71.35 C 401.97 69.39 399.07 68.29 396.13 67.40 L 395.63 66.86 C 395.22 66.96 394.39 67.16 393.98 67.25 C 393.20 67.15 391.63 66.95 390.85 66.85 L 390.51 66.51 L 390.06 66.46 C 380.80 65.50 371.43 66.10 362.13 65.95 C 358.23 59.75 354.85 53.26 351.12 46.96 C 345.39 36.69 339.19 26.69 333.90 16.18 C 338.10 16.04 342.37 16.30 346.47 15.19 Z" />
<path fill="#e8d296" d=" M 498.93 16.16 L 499.75 15.73 L 500.70 16.24 L 500.77 17.15 C 500.31 16.90 499.39 16.41 498.93 16.16 Z" />
<path fill="#e2c781" d=" M 502.16 17.24 C 502.29 17.34 502.54 17.52 502.67 17.62 C 502.54 17.52 502.29 17.34 502.16 17.24 Z" />
<path fill="#d4b46a" d=" M 138.37 18.54 C 138.42 18.52 138.53 18.47 138.58 18.44 C 138.53 18.47 138.42 18.52 138.37 18.54 Z" />
<path fill="#ddbd69" d=" M 516.41 28.33 C 516.45 28.38 516.52 28.49 516.56 28.55 C 516.52 28.49 516.45 28.38 516.41 28.33 Z" />
<path fill="#d1b46b" d=" M 123.42 33.63 C 123.45 33.57 123.51 33.44 123.54 33.38 C 123.51 33.44 123.45 33.57 123.42 33.63 Z" />
<path fill="#e2c77f" d=" M 520.37 35.31 C 520.47 35.44 520.65 35.70 520.74 35.83 C 520.65 35.70 520.47 35.44 520.37 35.31 Z" />
<path fill="#e7cf95" d=" M 520.83 37.24 L 521.75 37.30 L 522.26 38.23 L 521.85 39.07 C 521.60 38.61 521.09 37.70 520.83 37.24 Z" />
<path fill="#b28621" d=" M 119.78 66.68 C 120.68 58.12 118.90 49.33 120.95 40.92 C 120.90 49.35 121.13 57.79 120.84 66.23 L 119.78 66.68 Z" />
<path fill="#415b72" d=" M 779.43 54.58 C 786.34 52.59 794.07 53.19 800.44 56.63 C 806.75 60.10 811.74 66.01 813.83 72.93 C 818.18 86.13 810.83 101.57 797.92 106.58 C 788.01 110.57 775.75 108.49 768.17 100.82 C 760.22 93.28 757.84 80.82 761.88 70.73 C 764.91 63.09 771.52 56.90 779.43 54.58 Z" />
<path fill="#93a2b0" d=" M 42.68 67.40 C 45.37 66.59 48.15 66.11 50.97 66.17 C 72.64 66.13 94.32 66.21 115.99 66.15 C 117.28 66.13 118.54 66.30 119.78 66.68 C 124.43 67.95 129.29 67.23 134.04 67.36 C 214.38 67.35 294.72 67.34 375.07 67.30 C 380.17 67.27 385.30 67.57 390.38 66.89 L 390.85 66.85 C 391.63 66.95 393.20 67.15 393.98 67.25 L 394.46 67.92 C 390.68 67.32 386.85 67.61 383.04 67.67 C 345.92 67.66 308.79 67.60 271.67 67.71 C 241.67 67.63 211.67 67.63 181.68 67.68 C 163.48 67.66 145.27 67.56 127.07 67.68 C 110.59 66.82 94.08 67.28 77.58 67.24 C 65.95 67.31 54.30 67.02 42.68 67.40 Z" />
<path fill="#a38930" d=" M 390.06 66.46 L 390.51 66.51 L 390.85 66.85 L 390.38 66.89 L 390.06 66.46 Z" />
<path fill="#385167" d=" M 17.03 98.01 C 17.42 83.57 28.51 70.28 42.68 67.40 C 54.30 67.02 65.95 67.31 77.58 67.24 C 80.17 71.28 83.92 74.34 87.26 77.72 C 103.22 93.78 119.29 109.73 135.28 125.76 C 138.53 129.07 142.04 132.15 144.97 135.78 C 136.75 136.18 128.51 135.60 120.30 136.08 L 120.20 136.93 C 119.94 146.24 120.15 155.57 120.12 164.89 C 138.35 164.90 156.57 164.88 174.80 164.94 C 182.08 173.07 190.15 180.44 197.75 188.26 C 202.28 192.98 207.30 197.24 211.29 202.44 C 180.92 202.45 150.55 202.57 120.19 202.43 C 120.04 211.80 120.04 221.18 120.21 230.56 C 143.69 230.41 167.18 230.54 190.66 230.54 C 195.57 236.85 201.76 242.00 207.30 247.74 C 213.90 254.55 220.89 260.98 227.22 268.05 C 193.90 268.07 160.58 268.12 127.26 268.08 C 124.28 264.62 120.98 261.45 117.73 258.24 C 92.44 232.90 67.10 207.61 41.79 182.29 C 33.52 174.15 25.54 165.69 17.01 157.80 C 17.01 137.87 16.96 117.94 17.03 98.01 Z" />
<path fill="#93874a" d=" M 393.98 67.25 C 394.39 67.16 395.22 66.96 395.63 66.86 L 396.13 67.40 L 395.50 68.05 L 394.46 67.92 L 393.98 67.25 Z" />
<path fill="#3e596f" d=" M 77.58 67.24 C 94.08 67.28 110.59 66.82 127.07 67.68 C 145.27 67.56 163.48 67.66 181.68 67.68 C 188.68 75.53 196.08 83.09 204.24 89.75 C 219.09 104.56 233.92 119.41 248.74 134.26 C 249.80 135.49 251.36 135.96 252.96 135.90 C 274.21 136.02 295.48 135.67 316.73 136.13 L 316.78 136.84 C 251.25 136.79 185.73 136.92 120.20 136.93 L 120.30 136.08 C 128.51 135.60 136.75 136.18 144.97 135.78 C 142.04 132.15 138.53 129.07 135.28 125.76 C 119.29 109.73 103.22 93.78 87.26 77.72 C 83.92 74.34 80.17 71.28 77.58 67.24 Z" />
<path fill="#425c74" d=" M 181.68 67.68 C 211.67 67.63 241.67 67.63 271.67 67.71 C 274.67 71.53 278.36 74.72 281.70 78.23 C 326.97 123.32 371.99 168.67 417.29 213.72 C 419.16 215.26 418.75 217.83 418.86 219.99 C 418.74 248.06 418.95 276.13 418.80 304.20 C 387.19 272.79 355.77 241.20 324.22 209.73 C 321.83 207.36 319.55 204.86 316.97 202.69 C 298.78 202.12 280.55 202.71 262.35 202.44 C 250.81 189.31 237.55 177.78 225.70 164.94 C 256.08 164.82 286.47 165.08 316.85 164.86 C 316.75 155.52 316.97 146.18 316.78 136.84 L 316.73 136.13 C 295.48 135.67 274.21 136.02 252.96 135.90 C 251.36 135.96 249.80 135.49 248.74 134.26 C 233.92 119.41 219.09 104.56 204.24 89.75 C 196.08 83.09 188.68 75.53 181.68 67.68 Z" />
<path fill="#466078" d=" M 271.67 67.71 C 308.79 67.60 345.92 67.66 383.04 67.67 C 386.85 67.61 390.68 67.32 394.46 67.92 L 395.50 68.05 L 396.13 67.40 C 399.07 68.29 401.97 69.39 404.39 71.35 C 404.47 71.40 404.63 71.51 404.71 71.57 C 405.39 72.03 406.75 72.95 407.43 73.41 C 407.48 73.44 407.57 73.50 407.61 73.54 C 409.57 74.73 411.21 76.36 412.49 78.26 C 412.55 78.34 412.66 78.48 412.71 78.56 C 416.92 83.77 419.56 90.33 419.94 97.03 C 420.24 133.24 419.51 169.46 419.89 205.67 C 420.22 238.11 419.65 270.55 419.76 302.99 C 419.79 306.74 419.62 310.50 419.56 314.26 C 418.72 310.97 418.66 307.57 418.80 304.20 C 418.95 276.13 418.74 248.06 418.86 219.99 C 418.75 217.83 419.16 215.26 417.29 213.72 C 371.99 168.67 326.97 123.32 281.70 78.23 C 278.36 74.72 274.67 71.53 271.67 67.71 Z" />
<path fill="#92864a" d=" M 404.39 71.35 C 404.47 71.40 404.63 71.51 404.71 71.57 C 404.63 71.51 404.47 71.40 404.39 71.35 Z" />
<path fill="#9e893a" d=" M 407.43 73.41 C 407.48 73.44 407.57 73.50 407.61 73.54 C 407.57 73.50 407.48 73.44 407.43 73.41 Z" />
<path fill="#354d63" d=" M 1258.73 92.74 C 1279.05 80.34 1303.23 74.25 1327.00 76.05 C 1345.48 77.21 1363.74 83.36 1378.73 94.31 C 1394.03 105.52 1406.59 120.79 1413.43 138.57 C 1420.60 157.11 1421.76 177.67 1418.34 197.16 C 1414.72 217.74 1403.61 237.09 1387.02 249.93 C 1374.63 259.40 1359.40 264.40 1344.10 266.58 C 1330.76 268.54 1317.23 268.11 1303.80 267.72 C 1303.73 242.55 1303.67 217.38 1303.83 192.21 C 1305.61 190.52 1307.35 188.79 1309.10 187.06 C 1314.43 186.62 1320.50 186.58 1324.72 182.77 C 1328.20 179.60 1328.11 174.36 1327.45 170.08 C 1326.86 166.47 1323.69 163.87 1320.19 163.32 C 1315.07 162.25 1308.50 162.33 1305.10 166.95 C 1301.81 171.96 1301.94 178.24 1301.99 183.99 C 1301.98 240.90 1302.04 297.81 1301.96 354.72 C 1300.17 356.43 1298.42 358.18 1296.71 359.97 C 1270.10 360.05 1243.50 359.97 1216.89 360.01 C 1215.18 358.32 1213.48 356.63 1211.78 354.95 C 1211.70 297.31 1211.78 239.67 1211.74 182.02 C 1212.15 164.23 1214.53 145.89 1223.12 130.02 C 1231.33 114.66 1243.85 101.74 1258.73 92.74 Z" />
<path fill="#958645" d=" M 412.49 78.26 C 412.55 78.34 412.66 78.48 412.71 78.56 C 412.66 78.48 412.55 78.34 412.49 78.26 Z" />
<path fill="#354d63" d=" M 1447.26 89.00 C 1447.84 86.17 1450.85 84.39 1452.91 82.56 C 1477.28 82.40 1501.66 82.58 1526.04 82.47 C 1527.85 84.19 1529.62 85.96 1531.31 87.81 C 1531.15 176.86 1531.33 265.91 1531.22 354.95 C 1529.50 356.62 1527.81 358.31 1526.13 360.00 C 1501.76 359.94 1477.39 360.11 1453.03 359.92 C 1450.70 358.75 1449.21 356.33 1447.26 354.64 C 1447.24 266.09 1447.24 177.54 1447.26 89.00 Z" />
<path fill="#415b72" d=" M 627.90 137.96 C 645.42 133.61 664.77 134.61 680.97 143.00 C 692.93 149.40 702.43 159.46 710.62 170.09 C 704.94 178.30 699.19 186.47 693.54 194.71 C 690.41 194.78 687.29 194.78 684.18 194.67 C 678.24 186.16 670.55 178.43 660.84 174.39 C 650.85 170.38 638.60 170.13 629.50 176.48 C 623.36 180.74 617.96 187.28 617.61 195.04 C 617.31 202.20 621.42 208.78 626.59 213.41 C 638.28 224.04 652.51 231.25 664.95 240.89 C 676.44 249.65 688.12 259.40 694.10 272.93 C 700.97 288.02 701.95 305.60 697.64 321.55 C 692.69 339.52 679.15 354.55 662.39 362.41 C 645.88 369.98 626.86 371.20 609.18 367.66 C 586.42 362.86 567.06 347.55 554.09 328.63 C 560.75 321.33 567.12 313.76 573.79 306.47 C 576.54 306.74 579.31 306.80 582.08 306.77 C 590.68 317.09 601.09 326.59 614.03 330.96 C 624.12 334.40 635.84 334.74 645.32 329.34 C 654.43 324.11 662.05 314.90 662.73 304.09 C 663.33 297.51 661.20 290.95 657.52 285.53 C 653.94 279.84 648.34 275.91 643.15 271.82 C 627.23 259.82 609.65 249.78 595.70 235.34 C 588.75 228.40 583.54 219.61 581.41 209.99 C 577.87 194.15 581.20 176.81 590.70 163.60 C 599.63 151.08 612.95 141.71 627.90 137.96 Z" />
<path fill="#415b72" d=" M 939.55 136.76 C 959.13 133.21 980.28 136.74 996.74 148.23 C 1006.94 154.82 1014.31 164.94 1019.44 175.80 L 1020.02 175.95 C 1026.93 167.61 1034.50 159.71 1043.46 153.52 C 1059.02 142.50 1077.77 135.38 1097.00 135.47 C 1111.61 135.34 1126.49 138.97 1138.72 147.17 C 1152.39 156.25 1162.78 170.24 1167.08 186.12 C 1171.35 201.07 1170.11 216.81 1168.70 232.08 C 1166.59 250.46 1163.99 268.79 1161.66 287.14 C 1158.23 312.95 1155.08 338.79 1151.47 364.57 C 1140.99 364.41 1130.51 364.55 1120.04 364.50 C 1118.22 362.43 1116.43 360.35 1114.69 358.23 C 1119.63 322.44 1124.43 286.62 1129.29 250.82 C 1130.97 237.29 1132.72 223.72 1132.85 210.07 C 1132.97 201.51 1130.43 192.76 1124.93 186.10 C 1119.89 179.68 1112.50 175.22 1104.52 173.58 C 1090.48 170.68 1075.50 173.86 1063.39 181.37 C 1050.82 189.15 1039.96 200.32 1034.30 214.13 C 1028.28 228.72 1025.25 244.34 1023.14 259.92 C 1018.78 291.29 1014.43 322.67 1010.06 354.04 C 1009.36 357.46 1009.57 361.36 1008.24 364.46 C 997.58 364.47 986.92 364.66 976.27 364.35 C 974.70 362.16 972.45 360.41 971.29 357.97 C 975.90 322.95 980.78 287.96 985.47 252.95 C 987.37 239.04 989.51 225.10 989.51 211.03 C 989.46 200.63 986.35 189.74 978.73 182.32 C 972.59 175.77 963.77 172.25 954.90 171.68 C 936.72 170.33 918.53 177.94 905.46 190.39 C 894.08 201.06 887.83 215.99 884.50 230.98 C 879.55 249.65 877.74 268.93 875.08 288.01 C 871.72 313.51 868.20 338.99 864.91 364.50 C 854.24 364.53 843.56 364.45 832.89 364.54 C 830.96 362.49 829.11 360.38 827.37 358.18 C 837.34 285.65 847.05 213.08 856.88 140.52 C 867.30 140.51 877.73 140.43 888.15 140.55 C 890.47 142.00 891.90 144.59 893.91 146.46 C 893.48 150.91 892.66 155.32 892.32 159.78 C 905.60 148.05 922.10 139.94 939.55 136.76 Z" />
<path fill="#93a2b0" d=" M 120.20 136.93 C 185.73 136.92 251.25 136.79 316.78 136.84 C 316.97 146.18 316.75 155.52 316.85 164.86 C 286.47 165.08 256.08 164.82 225.70 164.94 C 208.73 164.92 191.76 164.86 174.80 164.94 C 156.57 164.88 138.35 164.90 120.12 164.89 C 120.15 155.57 119.94 146.24 120.20 136.93 Z" />
<path fill="#415b72" d=" M 761.04 140.51 C 771.40 140.47 781.76 140.52 792.12 140.49 C 793.87 142.61 796.05 144.44 797.39 146.87 C 788.07 219.42 778.27 291.92 768.88 364.46 C 758.24 364.58 747.59 364.40 736.94 364.56 C 734.98 362.54 733.12 360.41 731.38 358.21 C 741.35 285.66 751.14 213.08 761.04 140.51 Z" />
<path fill="#354d63" d=" M 1605.45 171.47 C 1621.08 159.43 1640.24 152.21 1659.87 150.52 C 1681.34 148.51 1703.68 151.87 1722.72 162.33 C 1739.86 171.73 1754.34 185.97 1763.99 202.97 C 1773.11 218.99 1777.39 237.57 1777.02 255.96 C 1777.07 262.16 1776.28 268.32 1775.93 274.50 C 1735.92 274.50 1695.91 274.50 1655.90 274.50 C 1653.44 266.94 1651.58 259.04 1652.01 251.03 C 1652.28 243.43 1654.26 236.01 1657.12 229.00 C 1668.39 228.96 1679.66 229.09 1690.94 228.93 C 1689.28 225.52 1687.12 222.12 1683.60 220.41 C 1675.92 216.73 1665.89 217.68 1659.59 223.63 C 1652.79 229.87 1649.49 239.09 1648.67 248.11 C 1647.96 258.56 1648.68 269.63 1654.00 278.91 C 1657.46 285.17 1663.49 290.51 1670.92 290.93 C 1678.53 291.87 1685.12 286.91 1690.12 281.76 C 1692.79 281.91 1695.47 282.01 1698.17 281.97 C 1712.18 298.59 1726.03 315.35 1739.92 332.07 C 1739.63 334.70 1739.36 337.33 1739.12 339.97 C 1723.57 352.30 1704.78 360.71 1685.02 363.12 C 1663.64 365.69 1641.36 362.73 1621.94 353.22 C 1606.27 345.46 1592.64 333.71 1582.37 319.58 C 1572.22 305.66 1565.97 289.04 1563.96 271.96 C 1561.67 252.31 1563.80 231.89 1571.80 213.68 C 1579.05 196.96 1591.11 182.59 1605.45 171.47 Z" />
<path fill="#354d63" d=" M 1809.18 154.23 C 1833.65 154.33 1858.12 154.12 1882.58 154.34 C 1884.35 156.23 1886.19 158.07 1888.03 159.93 C 1887.95 175.62 1888.04 191.30 1887.98 206.99 C 1887.83 210.85 1888.05 215.13 1890.76 218.17 C 1893.28 221.68 1898.87 221.70 1901.98 218.98 C 1904.08 216.51 1904.43 213.07 1904.51 209.95 C 1904.47 193.29 1904.54 176.62 1904.47 159.96 C 1906.34 157.99 1908.27 156.06 1910.27 154.20 C 1933.51 154.29 1956.76 154.25 1980.01 154.22 C 1984.02 153.48 1986.40 157.56 1988.67 160.16 C 1988.87 173.08 1988.68 186.02 1988.76 198.95 C 1988.78 210.34 1988.10 222.05 1983.67 232.69 C 1980.54 240.32 1975.03 246.70 1968.84 252.04 C 1974.66 257.08 1979.96 262.93 1983.22 269.99 C 1987.72 279.65 1988.62 290.48 1988.76 301.00 C 1988.74 318.88 1988.76 336.75 1988.74 354.63 C 1986.84 356.37 1985.28 358.54 1983.12 359.93 C 1958.72 360.10 1934.31 359.94 1909.91 360.01 C 1908.12 358.08 1905.81 356.52 1904.55 354.21 C 1904.43 335.80 1904.53 317.38 1904.50 298.97 C 1904.54 294.08 1904.79 288.85 1902.38 284.41 C 1900.56 281.00 1896.04 280.68 1892.74 281.64 C 1888.98 282.96 1888.15 287.47 1888.01 290.95 C 1887.95 312.21 1888.06 333.47 1887.96 354.73 C 1886.17 356.42 1884.43 358.16 1882.74 359.95 C 1858.20 360.06 1833.66 359.98 1809.11 359.99 C 1807.13 357.47 1803.10 355.74 1803.72 352.00 C 1803.81 334.67 1803.67 317.34 1803.79 300.01 C 1804.10 289.23 1806.14 278.14 1812.01 268.92 C 1816.29 262.11 1822.30 256.62 1828.72 251.86 C 1821.08 245.94 1813.95 238.89 1809.76 230.05 C 1805.21 220.75 1803.87 210.26 1803.74 200.01 C 1803.74 187.34 1803.77 174.68 1803.72 162.01 C 1803.26 158.40 1807.22 156.67 1809.18 154.23 Z" />
<path fill="#334b60" d=" M 17.01 157.80 C 25.54 165.69 33.52 174.15 41.79 182.29 C 67.10 207.61 92.44 232.90 117.73 258.24 C 120.98 261.45 124.28 264.62 127.26 268.08 C 124.87 268.08 122.48 268.09 120.10 268.10 C 120.16 277.50 119.93 286.92 120.23 296.32 C 132.36 296.07 144.49 296.27 156.62 296.24 C 159.44 300.68 163.62 303.95 167.24 307.70 C 176.71 317.26 186.24 326.76 195.76 336.26 C 197.83 338.21 200.21 339.81 202.28 341.76 C 215.09 354.60 227.93 367.41 240.75 380.24 C 242.97 382.52 245.42 384.63 247.24 387.28 L 247.62 387.89 C 244.59 389.34 242.16 391.69 239.50 393.69 C 207.75 418.19 176.04 442.75 144.49 467.52 C 140.46 470.58 136.78 474.18 132.14 476.36 C 130.05 476.36 127.96 476.36 125.87 476.36 C 122.69 474.73 120.05 471.91 120.09 468.13 C 119.77 434.52 120.29 400.88 119.85 367.27 C 118.25 367.03 115.97 368.19 115.00 366.36 C 112.38 368.29 108.08 367.48 105.00 366.66 C 103.43 367.59 101.57 367.56 99.99 366.66 C 95.80 368.07 91.25 367.08 86.91 367.31 C 84.73 366.04 82.36 367.42 80.06 367.36 C 70.72 367.36 61.38 367.32 52.03 367.38 C 48.90 367.51 45.95 366.21 42.82 366.23 C 41.57 365.76 40.29 365.37 38.97 365.14 C 26.41 360.75 16.97 348.45 17.01 335.00 C 16.99 275.94 17.01 216.87 17.01 157.80 Z" />
<path fill="#3d576e" d=" M 174.80 164.94 C 191.76 164.86 208.73 164.92 225.70 164.94 C 237.55 177.78 250.81 189.31 262.35 202.44 C 245.33 202.46 228.31 202.52 211.29 202.44 C 207.30 197.24 202.28 192.98 197.75 188.26 C 190.15 180.44 182.08 173.07 174.80 164.94 Z" />
<path fill="#90a1ad" d=" M 120.19 202.43 C 150.55 202.57 180.92 202.45 211.29 202.44 C 228.31 202.52 245.33 202.46 262.35 202.44 C 280.55 202.71 298.78 202.12 316.97 202.69 C 316.67 211.99 317.01 221.29 316.76 230.59 C 274.73 230.50 232.69 230.48 190.66 230.54 C 167.18 230.54 143.69 230.41 120.21 230.56 C 120.04 221.18 120.04 211.80 120.19 202.43 Z" />
<path fill="#3d576e" d=" M 316.97 202.69 C 319.55 204.86 321.83 207.36 324.22 209.73 C 355.77 241.20 387.19 272.79 418.80 304.20 C 418.66 307.57 418.72 310.97 419.56 314.26 L 419.68 315.04 C 419.74 315.50 419.86 316.42 419.93 316.88 C 419.60 327.92 421.78 339.90 415.98 349.96 C 412.26 357.16 405.49 362.26 398.07 365.20 C 396.88 365.18 395.87 365.54 395.03 366.29 C 385.38 367.03 375.69 366.59 366.02 366.71 C 352.82 366.67 339.62 366.77 326.42 366.66 C 324.13 363.32 321.15 360.58 318.27 357.78 C 300.27 339.77 282.26 321.78 264.27 303.77 C 261.82 301.48 259.45 299.08 257.60 296.26 C 266.33 296.24 275.07 296.04 283.79 296.37 C 284.29 286.95 283.96 277.50 284.01 268.06 C 265.08 268.00 246.15 268.14 227.22 268.05 C 220.89 260.98 213.90 254.55 207.30 247.74 C 201.76 242.00 195.57 236.85 190.66 230.54 C 232.69 230.48 274.73 230.50 316.76 230.59 C 317.01 221.29 316.67 211.99 316.97 202.69 Z" />
<path fill="#30465a" d=" M 419.89 205.67 C 423.18 209.76 425.37 214.57 428.07 219.03 C 440.10 239.98 451.83 261.10 463.89 282.03 C 469.97 293.04 476.82 303.66 482.30 314.99 C 461.42 315.02 440.55 314.95 419.68 315.04 L 419.56 314.26 C 419.62 310.50 419.79 306.74 419.76 302.99 C 419.65 270.55 420.22 238.11 419.89 205.67 Z" />
<path fill="#8f9eab" d=" M 120.10 268.10 C 122.48 268.09 124.87 268.08 127.26 268.08 C 160.58 268.12 193.90 268.07 227.22 268.05 C 246.15 268.14 265.08 268.00 284.01 268.06 C 283.96 277.50 284.29 286.95 283.79 296.37 C 275.07 296.04 266.33 296.24 257.60 296.26 C 223.94 296.22 190.28 296.15 156.62 296.24 C 144.49 296.27 132.36 296.07 120.23 296.32 C 119.93 286.92 120.16 277.50 120.10 268.10 Z" />
<path fill="#375065" d=" M 156.62 296.24 C 190.28 296.15 223.94 296.22 257.60 296.26 C 259.45 299.08 261.82 301.48 264.27 303.77 C 282.26 321.78 300.27 339.77 318.27 357.78 C 321.15 360.58 324.13 363.32 326.42 366.66 C 309.10 366.69 291.79 366.71 274.47 366.65 C 266.26 373.05 257.96 379.34 249.78 385.80 C 248.97 386.34 248.12 386.84 247.24 387.28 C 245.42 384.63 242.97 382.52 240.75 380.24 C 227.93 367.41 215.09 354.60 202.28 341.76 C 200.21 339.81 197.83 338.21 195.76 336.26 C 186.24 326.76 176.71 317.26 167.24 307.70 C 163.62 303.95 159.44 300.68 156.62 296.24 Z" />
<path fill="#bfbebd" d=" M 497.82 314.23 C 505.38 312.22 512.02 307.67 516.98 301.68 C 516.47 304.75 513.82 306.66 511.75 308.71 C 505.64 314.34 497.24 317.06 489.01 316.91 C 465.98 316.91 442.95 316.97 419.93 316.88 C 419.86 316.42 419.74 315.50 419.68 315.04 C 440.55 314.95 461.42 315.02 482.30 314.99 C 485.55 315.02 488.81 314.93 492.07 315.03 C 494.03 315.47 496.07 315.26 497.82 314.23 Z" />
<path fill="#93805b" d=" M 492.07 315.03 C 493.26 312.89 495.94 313.76 497.82 314.23 C 496.07 315.26 494.03 315.47 492.07 315.03 Z" />
</svg>
